<svg width="358" height="87" viewBox="0 0 358 87" fill="none" xmlns="http://www.w3.org/2000/svg">
<rect y="8" width="358" height="79" rx="16" fill="#7B5131"/>
<rect width="358" height="79" rx="16" fill="#E5965C"/>
<path d="M149.424 47.056C147.725 47.056 146.876 46.8693 146.876 46.496V28.352C146.876 27.7173 147.165 27.4 147.744 27.4H152.672C155.435 27.4 157.423 27.9693 158.636 29.108C159.868 30.2467 160.484 31.8987 160.484 34.064C160.484 35.856 159.905 37.4987 158.748 38.992C158.169 39.7387 157.32 40.336 156.2 40.784C155.08 41.232 153.773 41.456 152.28 41.456V46.468C152.28 46.692 151.925 46.8507 151.216 46.944C150.525 47.0187 149.928 47.056 149.424 47.056ZM152.28 32.272V36.696H152.644C153.297 36.696 153.848 36.4907 154.296 36.08C154.744 35.6693 154.968 35.0907 154.968 34.344C154.968 33.5973 154.809 33.0653 154.492 32.748C154.193 32.4307 153.652 32.272 152.868 32.272H152.28ZM167.913 46.776C167.913 46.944 166.961 47.028 165.057 47.028C163.563 47.0093 162.817 46.9347 162.817 46.804V27.736C162.817 27.456 163.722 27.316 165.533 27.316C167.119 27.372 167.913 27.4653 167.913 27.596V46.776ZM172.21 36.836C171.687 35.9027 171.426 35.1467 171.426 34.568C171.426 33.9707 171.584 33.588 171.902 33.42C172.966 32.9533 174.422 32.72 176.27 32.72C178.136 32.72 179.452 33.1587 180.218 34.036C180.983 34.8947 181.366 36.1733 181.366 37.872V42.296H182.318C182.635 42.296 182.878 42.4827 183.046 42.856C183.232 43.2293 183.326 43.7427 183.326 44.396C183.326 45.0493 183.158 45.6933 182.822 46.328C182.504 46.9627 182.066 47.28 181.506 47.28C180.498 47.28 179.686 47.0093 179.07 46.468C178.79 46.244 178.575 45.9733 178.426 45.656C177.567 46.7387 176.232 47.28 174.422 47.28C173.059 47.28 171.911 46.7947 170.978 45.824C170.044 44.8533 169.578 43.7053 169.578 42.38C169.578 39.3373 171.398 37.816 175.038 37.816H176.578V37.536C176.578 37.0507 176.494 36.7427 176.326 36.612C176.176 36.4627 175.812 36.388 175.234 36.388C174.524 36.388 173.516 36.5373 172.21 36.836ZM174.45 41.988C174.45 42.3987 174.562 42.716 174.786 42.94C175.01 43.1453 175.29 43.248 175.626 43.248C175.98 43.248 176.298 43.108 176.578 42.828V40.672H175.794C174.898 40.672 174.45 41.1107 174.45 41.988ZM183.93 33.14C183.93 32.9347 184.78 32.832 186.478 32.832C188.196 32.832 189.082 32.9253 189.138 33.112L191.154 39.72L193.086 33.056C193.161 32.9067 193.74 32.832 194.822 32.832C197.305 32.832 198.49 32.9533 198.378 33.196L191.798 51.928C191.78 52.04 191.266 52.096 190.258 52.096C189.269 52.096 188.345 52.0587 187.486 51.984C186.628 51.928 186.217 51.8533 186.254 51.76L188.69 45.88L183.93 33.14ZM206.991 36.836C206.468 35.9027 206.207 35.1467 206.207 34.568C206.207 33.9707 206.365 33.588 206.683 33.42C207.747 32.9533 209.203 32.72 211.051 32.72C212.917 32.72 214.233 33.1587 214.999 34.036C215.764 34.8947 216.147 36.1733 216.147 37.872V42.296H217.099C217.416 42.296 217.659 42.4827 217.827 42.856C218.013 43.2293 218.107 43.7427 218.107 44.396C218.107 45.0493 217.939 45.6933 217.603 46.328C217.285 46.9627 216.847 47.28 216.287 47.28C215.279 47.28 214.467 47.0093 213.851 46.468C213.571 46.244 213.356 45.9733 213.207 45.656C212.348 46.7387 211.013 47.28 209.203 47.28C207.84 47.28 206.692 46.7947 205.759 45.824C204.825 44.8533 204.359 43.7053 204.359 42.38C204.359 39.3373 206.179 37.816 209.819 37.816H211.359V37.536C211.359 37.0507 211.275 36.7427 211.107 36.612C210.957 36.4627 210.593 36.388 210.015 36.388C209.305 36.388 208.297 36.5373 206.991 36.836ZM209.231 41.988C209.231 42.3987 209.343 42.716 209.567 42.94C209.791 43.1453 210.071 43.248 210.407 43.248C210.761 43.248 211.079 43.108 211.359 42.828V40.672H210.575C209.679 40.672 209.231 41.1107 209.231 41.988ZM224.844 47C223.033 47 221.633 46.4213 220.644 45.264C219.654 44.088 219.16 42.3613 219.16 40.084C219.16 37.788 219.804 35.996 221.092 34.708C222.398 33.4013 224.125 32.748 226.272 32.748C228.437 32.748 230.22 33.224 231.62 34.176V48.12C231.62 49.5013 231.06 50.556 229.94 51.284C228.82 52.0307 227.382 52.404 225.628 52.404C223.873 52.404 222.305 52.18 220.924 51.732C220.737 51.284 220.644 50.8827 220.644 50.528C220.644 49.3333 220.84 48.456 221.232 47.896C222.482 48.4373 223.817 48.708 225.236 48.708C226.262 48.708 226.776 48.344 226.776 47.616V46.776C225.973 46.9253 225.329 47 224.844 47ZM226.132 37.312C224.881 37.312 224.256 38.2547 224.256 40.14C224.256 41.316 224.498 42.0813 224.984 42.436C225.301 42.6787 225.618 42.8 225.936 42.8C226.253 42.8 226.533 42.772 226.776 42.716V37.396C226.552 37.34 226.337 37.312 226.132 37.312ZM235.893 36.836C235.37 35.9027 235.109 35.1467 235.109 34.568C235.109 33.9707 235.268 33.588 235.585 33.42C236.649 32.9533 238.105 32.72 239.953 32.72C241.82 32.72 243.136 33.1587 243.901 34.036C244.666 34.8947 245.049 36.1733 245.049 37.872V42.296H246.001C246.318 42.296 246.561 42.4827 246.729 42.856C246.916 43.2293 247.009 43.7427 247.009 44.396C247.009 45.0493 246.841 45.6933 246.505 46.328C246.188 46.9627 245.749 47.28 245.189 47.28C244.181 47.28 243.369 47.0093 242.753 46.468C242.473 46.244 242.258 45.9733 242.109 45.656C241.25 46.7387 239.916 47.28 238.105 47.28C236.742 47.28 235.594 46.7947 234.661 45.824C233.728 44.8533 233.261 43.7053 233.261 42.38C233.261 39.3373 235.081 37.816 238.721 37.816H240.261V37.536C240.261 37.0507 240.177 36.7427 240.009 36.612C239.86 36.4627 239.496 36.388 238.917 36.388C238.208 36.388 237.2 36.5373 235.893 36.836ZM238.133 41.988C238.133 42.3987 238.245 42.716 238.469 42.94C238.693 43.1453 238.973 43.248 239.309 43.248C239.664 43.248 239.981 43.108 240.261 42.828V40.672H239.477C238.581 40.672 238.133 41.1107 238.133 41.988ZM253.718 46.832C253.718 46.9813 252.859 47.056 251.142 47.056C249.443 47.056 248.594 46.9907 248.594 46.86V33.112C248.594 32.9813 249.443 32.916 251.142 32.916C252.859 32.916 253.718 32.972 253.718 33.084V46.832ZM253.718 31.432C253.718 31.5627 252.859 31.628 251.142 31.628C249.443 31.628 248.594 31.572 248.594 31.46V27.428C248.594 27.2413 249.443 27.148 251.142 27.148C252.859 27.148 253.718 27.204 253.718 27.316V31.432ZM262.102 46.832C262.102 46.9627 261.43 47.028 260.086 47.028C258.22 46.972 257.286 46.8693 257.286 46.72V37.648H256.558C256.073 37.648 255.756 37.2373 255.606 36.416C255.569 36.1733 255.55 35.9307 255.55 35.688C255.55 35.1093 255.662 34.5307 255.886 33.952C256.222 33.1307 256.745 32.72 257.454 32.72C258.164 32.72 258.798 32.888 259.358 33.224C259.918 33.56 260.292 33.896 260.478 34.232C261.654 33.224 263.054 32.72 264.678 32.72C266.302 32.72 267.478 33.1587 268.206 34.036C268.934 34.9133 269.298 36.3507 269.298 38.348V46.748C269.298 46.972 268.496 47.084 266.89 47.084C265.304 47.084 264.51 46.972 264.51 46.748V38.656C264.51 37.7227 264.184 37.256 263.53 37.256C263.344 37.256 263.082 37.34 262.746 37.508C262.41 37.6573 262.196 37.7693 262.102 37.844V46.832Z" fill="white"/>
<path d="M111.999 24.1654V16.832L102.832 25.9987L111.999 35.1654V27.832C118.067 27.832 122.999 32.7637 122.999 38.832C122.999 44.9004 118.067 49.832 111.999 49.832C105.93 49.832 100.999 44.9004 100.999 38.832H97.332C97.332 46.9354 103.895 53.4987 111.999 53.4987C120.102 53.4987 126.665 46.9354 126.665 38.832C126.665 30.7287 120.102 24.1654 111.999 24.1654Z" fill="white"/>
</svg>
