<svg width="365" height="87" viewBox="0 0 365 87" fill="none" xmlns="http://www.w3.org/2000/svg">
<rect y="8" width="365" height="79" rx="16" fill="#E5965C"/>
<rect width="365" height="79" rx="16" fill="#7B5131"/>
<path d="M144.576 32.468C144.576 34.4093 143.736 35.884 142.056 36.892C142.97 37.228 143.736 37.8067 144.352 38.628C144.968 39.4493 145.276 40.616 145.276 42.128C145.276 43.6213 144.716 44.8067 143.596 45.684C142.494 46.5613 140.908 47 138.836 47H132.228C131.91 47 131.649 46.8973 131.444 46.692C131.238 46.468 131.136 46.1787 131.136 45.824V27.904C131.136 27.6987 131.164 27.568 131.22 27.512C131.294 27.4373 131.434 27.4 131.64 27.4H138.024C142.392 27.4 144.576 29.0893 144.576 32.468ZM136.512 31.936V35.604H136.652C138.444 35.604 139.34 35.0067 139.34 33.812C139.34 33.1587 139.162 32.6827 138.808 32.384C138.472 32.0853 137.902 31.936 137.1 31.936H136.512ZM136.512 38.908V42.548H137.016C137.818 42.548 138.406 42.3987 138.78 42.1C139.153 41.8013 139.34 41.3253 139.34 40.672C139.34 40.0187 139.162 39.5613 138.808 39.3C138.472 39.0387 137.902 38.908 137.1 38.908H136.512ZM149.077 36.836C148.554 35.9027 148.293 35.1467 148.293 34.568C148.293 33.9707 148.451 33.588 148.769 33.42C149.833 32.9533 151.289 32.72 153.137 32.72C155.003 32.72 156.319 33.1587 157.085 34.036C157.85 34.8947 158.233 36.1733 158.233 37.872V42.296H159.185C159.502 42.296 159.745 42.4827 159.913 42.856C160.099 43.2293 160.193 43.7427 160.193 44.396C160.193 45.0493 160.025 45.6933 159.689 46.328C159.371 46.9627 158.933 47.28 158.373 47.28C157.365 47.28 156.553 47.0093 155.937 46.468C155.657 46.244 155.442 45.9733 155.293 45.656C154.434 46.7387 153.099 47.28 151.289 47.28C149.926 47.28 148.778 46.7947 147.845 45.824C146.911 44.8533 146.445 43.7053 146.445 42.38C146.445 39.3373 148.265 37.816 151.905 37.816H153.445V37.536C153.445 37.0507 153.361 36.7427 153.193 36.612C153.043 36.4627 152.679 36.388 152.101 36.388C151.391 36.388 150.383 36.5373 149.077 36.836ZM151.317 41.988C151.317 42.3987 151.429 42.716 151.653 42.94C151.877 43.1453 152.157 43.248 152.493 43.248C152.847 43.248 153.165 43.108 153.445 42.828V40.672H152.661C151.765 40.672 151.317 41.1107 151.317 41.988ZM166.369 40.056C166.369 41.8853 167.06 42.8 168.441 42.8C169.337 42.8 170.084 42.6227 170.681 42.268C170.961 42.268 171.185 42.7533 171.353 43.724C171.54 44.676 171.633 45.3293 171.633 45.684C171.633 46.02 171.587 46.244 171.493 46.356C170.504 46.972 169.151 47.28 167.433 47.28C165.716 47.28 164.251 46.6453 163.037 45.376C161.843 44.088 161.245 42.3427 161.245 40.14C161.245 37.9187 161.833 36.1267 163.009 34.764C164.204 33.4013 165.781 32.72 167.741 32.72C169.72 32.72 171.092 33.196 171.857 34.148C172.025 34.3533 172.109 34.6613 172.109 35.072C172.109 35.464 172.035 35.9493 171.885 36.528C171.549 37.7227 171.111 38.4133 170.569 38.6C170.495 38.6187 170.383 38.628 170.233 38.628C170.103 38.628 169.935 38.516 169.729 38.292C169.001 37.564 168.413 37.2 167.965 37.2C167.536 37.2 167.163 37.424 166.845 37.872C166.528 38.32 166.369 39.048 166.369 40.056ZM173.645 27.624C173.645 27.3253 174.494 27.176 176.193 27.176C177.779 27.232 178.573 27.3533 178.573 27.54V38.292L181.345 33.168C181.475 32.888 182.269 32.748 183.725 32.748C185.181 32.748 186.114 32.8413 186.525 33.028L182.885 38.964L187.085 46.832C187.122 46.9067 186.767 46.9627 186.021 47C185.293 47.056 184.686 47.084 184.201 47.084C182.409 47.084 181.447 47 181.317 46.832L178.545 40.616V46.804C178.545 47.0467 177.723 47.168 176.081 47.168C174.457 47.168 173.645 47.056 173.645 46.832V27.624ZM200.237 46.832C200.237 47.056 199.453 47.168 197.885 47.168C196.018 47.0933 195.085 46.972 195.085 46.804V36.892H193.657C193.284 36.892 193.097 36.248 193.097 34.96C193.097 34.624 193.125 34.2133 193.181 33.728C193.256 33.2427 193.396 33 193.601 33H195.085V30.536C195.085 30.1627 195.869 29.976 197.437 29.976C199.024 29.976 199.817 30.1253 199.817 30.424V32.216L199.845 33H202.225C202.542 33 202.701 33.6533 202.701 34.96C202.701 36.2667 202.542 36.92 202.225 36.92H200.237V46.832ZM205.31 45.348C204.152 44.06 203.574 42.2773 203.574 40C203.574 37.7227 204.152 35.94 205.31 34.652C206.486 33.364 208.063 32.72 210.042 32.72C212.02 32.72 213.588 33.364 214.746 34.652C215.903 35.94 216.482 37.7227 216.482 40C216.482 42.2773 215.903 44.06 214.746 45.348C213.588 46.636 212.02 47.28 210.042 47.28C208.063 47.28 206.486 46.636 205.31 45.348ZM210.042 37.396C208.996 37.396 208.474 38.2547 208.474 39.972C208.474 41.6893 208.996 42.548 210.042 42.548C211.106 42.548 211.638 41.6893 211.638 39.972C211.638 38.2547 211.106 37.396 210.042 37.396ZM228.414 46.804C228.414 46.972 227.63 47.056 226.062 47.056C224.513 47.056 223.738 46.9253 223.738 46.664V27.484C223.738 27.3533 224.028 27.26 224.606 27.204C225.185 27.148 225.67 27.12 226.062 27.12C227.63 27.12 228.414 27.288 228.414 27.624V33.224C229.46 32.9067 230.253 32.748 230.794 32.748C232.213 32.748 233.333 33.1307 234.154 33.896C234.976 34.6427 235.386 36.0427 235.386 38.096V46.776C235.386 46.944 234.658 47.028 233.202 47.028C231.56 46.972 230.738 46.8787 230.738 46.748V38.516C230.738 37.6013 230.44 37.144 229.842 37.144C229.432 37.144 228.956 37.34 228.414 37.732V46.804ZM238.97 45.348C237.812 44.06 237.234 42.2773 237.234 40C237.234 37.7227 237.812 35.94 238.97 34.652C240.146 33.364 241.723 32.72 243.702 32.72C245.68 32.72 247.248 33.364 248.406 34.652C249.563 35.94 250.142 37.7227 250.142 40C250.142 42.2773 249.563 44.06 248.406 45.348C247.248 46.636 245.68 47.28 243.702 47.28C241.723 47.28 240.146 46.636 238.97 45.348ZM243.702 37.396C242.656 37.396 242.134 38.2547 242.134 39.972C242.134 41.6893 242.656 42.548 243.702 42.548C244.766 42.548 245.298 41.6893 245.298 39.972C245.298 38.2547 244.766 37.396 243.702 37.396ZM264.805 46.86C264.805 46.9907 264.002 47.056 262.397 47.056C260.81 47.056 260.017 46.972 260.017 46.804V38.656C260.017 37.7227 259.709 37.256 259.093 37.256C258.776 37.256 258.356 37.4613 257.833 37.872V46.832C257.833 47.0187 257.03 47.112 255.425 47.112C253.838 47.112 253.045 47.0093 253.045 46.804V37.648H252.345C251.729 37.648 251.421 37.004 251.421 35.716C251.421 35.1373 251.533 34.5493 251.757 33.952C252.056 33.1307 252.541 32.72 253.213 32.72C253.885 32.72 254.529 32.8973 255.145 33.252C255.78 33.6067 256.162 33.9427 256.293 34.26C257.45 33.2333 258.729 32.72 260.129 32.72C261.548 32.72 262.686 33.1587 263.545 34.036C264.553 33.1587 265.766 32.72 267.185 32.72C270.265 32.72 271.805 34.596 271.805 38.348V46.86C271.805 46.9907 271.002 47.056 269.397 47.056C267.81 47.056 267.017 46.972 267.017 46.804V38.656C267.017 37.7227 266.709 37.256 266.093 37.256C265.757 37.256 265.328 37.4613 264.805 37.872V46.86ZM284.772 46.244C283.596 46.9347 282.084 47.28 280.236 47.28C278.388 47.28 276.829 46.6547 275.56 45.404C274.29 44.1347 273.656 42.3893 273.656 40.168C273.656 37.928 274.262 36.1267 275.476 34.764C276.708 33.4013 278.257 32.72 280.124 32.72C281.99 32.72 283.428 33.196 284.436 34.148C285.462 35.1 285.976 36.2573 285.976 37.62C285.976 40.644 284.24 42.156 280.768 42.156H278.836C278.836 42.716 278.985 43.108 279.284 43.332C279.601 43.5373 280.058 43.64 280.656 43.64C281.962 43.64 283.204 43.3413 284.38 42.744C284.398 42.7253 284.482 42.856 284.632 43.136C285.08 43.9387 285.304 44.62 285.304 45.18C285.304 45.7213 285.126 46.076 284.772 46.244ZM281.272 38.152C281.272 37.368 280.889 36.976 280.124 36.976C279.769 36.976 279.461 37.088 279.2 37.312C278.957 37.5173 278.836 37.8253 278.836 38.236V39.104H280.348C280.964 39.104 281.272 38.7867 281.272 38.152Z" fill="white"/>
<path d="M79.3947 38.1253H81.0515V49.5003C81.0515 51.2927 82.5376 52.7503 84.365 52.7503H104.246C106.074 52.7503 107.56 51.2927 107.56 49.5003V38.1253H109.217C109.544 38.1253 109.865 38.0299 110.137 37.8514C110.409 37.6728 110.622 37.419 110.747 37.1221C110.872 36.8253 110.905 36.4986 110.841 36.1834C110.777 35.8682 110.62 35.5787 110.388 35.3515L95.477 20.7265C95.3233 20.5754 95.1407 20.4556 94.9397 20.3738C94.7387 20.2921 94.5233 20.25 94.3057 20.25C94.0881 20.25 93.8726 20.2921 93.6716 20.3738C93.4706 20.4556 93.2881 20.5754 93.1343 20.7265L78.2234 35.3515C77.9917 35.5787 77.834 35.8682 77.7701 36.1834C77.7062 36.4986 77.739 36.8253 77.8644 37.1221C77.9897 37.419 78.202 37.6728 78.4744 37.8514C78.7468 38.0299 79.0671 38.1253 79.3947 38.1253ZM90.9921 49.5003V41.3753H97.6192V49.5003H90.9921ZM94.3057 24.1731L104.246 33.9231V41.3753L104.248 49.5003H100.933V41.3753C100.933 39.583 99.4466 38.1253 97.6192 38.1253H90.9921C89.1647 38.1253 87.6786 39.583 87.6786 41.3753V49.5003H84.365V33.9231L94.3057 24.1731Z" fill="white"/>
</svg>
