<svg width="358" height="87" viewBox="0 0 358 87" fill="none" xmlns="http://www.w3.org/2000/svg">
<rect y="8" width="358" height="79" rx="16" fill="#7B5131"/>
<rect width="358" height="79" rx="16" fill="#E6965C"/>
<path d="M117.128 43.168C117.483 43.448 118.089 43.8307 118.948 44.316C119.825 44.8013 120.656 45.044 121.44 45.044C122.243 45.044 122.644 44.736 122.644 44.12C122.644 43.84 122.532 43.5973 122.308 43.392C122.084 43.168 121.673 42.916 121.076 42.636C120.479 42.356 120.031 42.1413 119.732 41.992C119.433 41.824 119.032 41.5627 118.528 41.208C118.043 40.8347 117.669 40.452 117.408 40.06C116.661 38.996 116.288 37.6427 116.288 36C116.288 34.3573 116.895 32.976 118.108 31.856C119.34 30.7173 120.945 30.148 122.924 30.148C124.268 30.148 125.509 30.2973 126.648 30.596C127.787 30.876 128.375 31.2493 128.412 31.716C128.412 31.772 128.412 31.828 128.412 31.884C128.412 32.5373 128.207 33.368 127.796 34.376C127.385 35.3653 127.096 35.916 126.928 36.028C125.733 35.412 124.66 35.104 123.708 35.104C122.775 35.104 122.308 35.44 122.308 36.112C122.308 36.5227 122.653 36.8867 123.344 37.204C123.493 37.2787 123.708 37.3813 123.988 37.512C124.268 37.6427 124.585 37.8013 124.94 37.988C125.313 38.156 125.705 38.38 126.116 38.66C126.545 38.9213 127.003 39.276 127.488 39.724C128.477 40.6573 128.972 41.8893 128.972 43.42C128.972 45.4173 128.421 47.0507 127.32 48.32C126.219 49.5893 124.52 50.2427 122.224 50.28C121.104 50.28 120.087 50.1867 119.172 50C118.276 49.8133 117.492 49.4493 116.82 48.908C116.148 48.3667 115.812 47.7133 115.812 46.948C115.812 46.1827 115.952 45.4267 116.232 44.68C116.512 43.9147 116.811 43.4107 117.128 43.168ZM139.703 49.552C139.703 49.9253 138.779 50.112 136.931 50.112C135.083 50.112 134.159 49.9253 134.159 49.552V35.496H130.799C130.482 35.496 130.258 35.0667 130.127 34.208C130.071 33.7973 130.043 33.3773 130.043 32.948C130.043 32.5187 130.071 32.0987 130.127 31.688C130.258 30.8293 130.482 30.4 130.799 30.4H142.979C143.296 30.4 143.52 30.8293 143.651 31.688C143.707 32.0987 143.735 32.5187 143.735 32.948C143.735 33.3773 143.707 33.7973 143.651 34.208C143.52 35.0667 143.296 35.496 142.979 35.496H139.703V49.552ZM157.779 50.056C156.155 50.056 155.277 49.7947 155.147 49.272L154.223 45.66H149.771L148.959 49.132C148.847 49.7107 147.951 50 146.271 50C145.375 50 144.712 49.9533 144.283 49.86C143.853 49.748 143.639 49.664 143.639 49.608L148.595 30.652C148.595 30.5027 149.873 30.428 152.431 30.428C154.988 30.428 156.267 30.5027 156.267 30.652L161.111 49.636C161.111 49.7667 160.681 49.8693 159.823 49.944C158.964 50.0187 158.283 50.056 157.779 50.056ZM150.471 42.104H153.411L152.151 36.308H151.983L150.471 42.104ZM168.314 49.608C168.314 49.9067 167.428 50.056 165.654 50.056C163.862 50.056 162.966 49.916 162.966 49.636V31.38C162.966 30.7267 163.312 30.4 164.002 30.4H169.35C174.26 30.4 176.714 32.3133 176.714 36.14C176.714 37.2973 176.49 38.352 176.042 39.304C175.594 40.2373 174.96 40.984 174.138 41.544L177.666 47.424C177.517 47.872 177.032 48.3853 176.21 48.964C175.09 49.7667 174.166 50.168 173.438 50.168C172.71 50.168 172.169 49.9067 171.814 49.384L169.182 43.252H168.314V49.608ZM168.314 35.356V39.556H168.454C170.228 39.556 171.114 38.8187 171.114 37.344C171.114 36.672 170.937 36.1773 170.582 35.86C170.246 35.524 169.686 35.356 168.902 35.356H168.314ZM187.91 49.552C187.91 49.9253 186.986 50.112 185.138 50.112C183.29 50.112 182.366 49.9253 182.366 49.552V35.496H179.006C178.689 35.496 178.465 35.0667 178.334 34.208C178.278 33.7973 178.25 33.3773 178.25 32.948C178.25 32.5187 178.278 32.0987 178.334 31.688C178.465 30.8293 178.689 30.4 179.006 30.4H191.186C191.503 30.4 191.727 30.8293 191.858 31.688C191.914 32.0987 191.942 32.5187 191.942 32.948C191.942 33.3773 191.914 33.7973 191.858 34.208C191.727 35.0667 191.503 35.496 191.186 35.496H187.91V49.552ZM209.174 44.148L209.23 40.34C209.23 40.0787 209.501 39.9107 210.042 39.836C210.583 39.7427 211.031 39.696 211.386 39.696L212.478 39.78C213.187 39.892 213.542 40.088 213.542 40.368L213.43 49.132C213.057 49.3933 212.301 49.6547 211.162 49.916C210.042 50.1587 208.754 50.28 207.298 50.28C204.591 50.28 202.407 49.4027 200.746 47.648C199.085 45.8933 198.254 43.3173 198.254 39.92C198.254 37.0267 199.066 34.6747 200.69 32.864C202.314 31.0533 204.563 30.148 207.438 30.148C208.745 30.148 209.921 30.2787 210.966 30.54C212.03 30.7827 212.758 31.1187 213.15 31.548C213.169 31.6973 213.178 31.9773 213.178 32.388C213.178 32.7987 213.038 33.3867 212.758 34.152C212.478 34.8987 212.161 35.4587 211.806 35.832C211.451 36.2053 211.19 36.392 211.022 36.392C210.873 36.392 210.705 36.3267 210.518 36.196C210.35 36.0467 210.005 35.8973 209.482 35.748C208.959 35.58 208.455 35.496 207.97 35.496C206.813 35.496 205.87 35.8693 205.142 36.616C204.433 37.3627 204.078 38.52 204.078 40.088C204.078 41.656 204.442 42.8507 205.17 43.672C205.917 44.4747 206.766 44.876 207.718 44.876C208.689 44.876 209.174 44.6333 209.174 44.148ZM229.365 50.056C227.741 50.056 226.863 49.7947 226.733 49.272L225.809 45.66H221.357L220.545 49.132C220.433 49.7107 219.537 50 217.857 50C216.961 50 216.298 49.9533 215.869 49.86C215.439 49.748 215.225 49.664 215.225 49.608L220.181 30.652C220.181 30.5027 221.459 30.428 224.017 30.428C226.574 30.428 227.853 30.5027 227.853 30.652L232.697 49.636C232.697 49.7667 232.267 49.8693 231.409 49.944C230.55 50.0187 229.869 50.056 229.365 50.056ZM222.057 42.104H224.997L223.737 36.308H223.569L222.057 42.104ZM254.152 50.028C252.491 50.028 251.66 49.8413 251.66 49.468L251.072 38.24L247.656 49.608C247.582 49.832 246.947 49.944 245.752 49.944C244.558 49.944 243.942 49.8413 243.904 49.636L240.376 38.128L239.984 49.3C239.966 49.58 239.611 49.776 238.92 49.888C238.23 49.9813 237.651 50.028 237.184 50.028C236.736 50.028 236.298 50 235.868 49.944C234.972 49.8133 234.534 49.58 234.552 49.244L235.196 31.044C235.196 30.596 236.335 30.372 238.612 30.372C239.284 30.372 240.106 30.428 241.076 30.54C242.047 30.6333 242.588 30.8293 242.7 31.128L245.836 39.948L248.58 31.1C248.748 30.6147 250.036 30.372 252.444 30.372C253.135 30.372 253.956 30.428 254.908 30.54C255.879 30.6333 256.364 30.8107 256.364 31.072L257.176 49.44C257.176 49.6453 256.812 49.7947 256.084 49.888C255.356 49.9813 254.712 50.028 254.152 50.028ZM269.055 38.184C269.409 38.184 269.587 38.8373 269.587 40.144C269.587 40.536 269.54 41.0027 269.447 41.544C269.372 42.0667 269.223 42.328 268.999 42.328H265.443V45.128H270.595C270.912 45.128 271.127 45.5387 271.239 46.36C271.295 46.7147 271.323 47.0973 271.323 47.508C271.323 47.9 271.267 48.4133 271.155 49.048C271.043 49.6827 270.856 50 270.595 50H261.019C260.309 50 259.955 49.7107 259.955 49.132V31.128C259.955 30.6427 260.169 30.4 260.599 30.4H270.623C271.015 30.4 271.211 31.2307 271.211 32.892C271.211 34.5347 271.015 35.356 270.623 35.356H265.443V38.184H269.055Z" fill="white"/>
<path d="M94.8374 41.4351L76.5447 51.6892C74.9923 52.5585 73 51.5059 73 49.7533V29.2451C73 27.4953 74.9894 26.4399 76.5447 27.312L94.8374 37.5662C95.1906 37.7609 95.4841 38.0424 95.6883 38.3822C95.8925 38.7219 96 39.1078 96 39.5006C96 39.8934 95.8925 40.2793 95.6883 40.619C95.4841 40.9588 95.1906 41.2403 94.8374 41.4351V41.4351Z" fill="white"/>
</svg>
