<svg width="439" height="186" viewBox="0 0 439 186" fill="none" xmlns="http://www.w3.org/2000/svg">
<path d="M43.3734 46.6C44.6401 47.6 46.8068 48.9667 49.8734 50.7C53.0068 52.4333 55.9734 53.3 58.7734 53.3C61.6401 53.3 63.0734 52.2 63.0734 50C63.0734 49 62.6734 48.1333 61.8734 47.4C61.0734 46.6 59.6068 45.7 57.4734 44.7C55.3401 43.7 53.7401 42.9333 52.6734 42.4C51.6068 41.8 50.1734 40.8667 48.3734 39.6C46.6401 38.2667 45.3068 36.9 44.3734 35.5C41.7068 31.7 40.3734 26.8667 40.3734 21C40.3734 15.1333 42.5401 10.2 46.8734 6.2C51.2734 2.13333 57.0068 0.0999949 64.0734 0.0999949C68.8734 0.0999949 73.3068 0.633329 77.3734 1.7C81.4401 2.7 83.5401 4.03333 83.6734 5.69999C83.6734 5.9 83.6734 6.1 83.6734 6.3C83.6734 8.63333 82.9401 11.6 81.4734 15.2C80.0068 18.7333 78.9734 20.7 78.3734 21.1C74.1068 18.9 70.2734 17.8 66.8734 17.8C63.5401 17.8 61.8734 19 61.8734 21.4C61.8734 22.8667 63.1068 24.1667 65.5734 25.3C66.1068 25.5667 66.8734 25.9333 67.8734 26.4C68.8734 26.8667 70.0068 27.4333 71.2734 28.1C72.6068 28.7 74.0068 29.5 75.4734 30.5C77.0068 31.4333 78.6401 32.7 80.3734 34.3C83.9068 37.6333 85.6734 42.0333 85.6734 47.5C85.6734 54.6333 83.7068 60.4667 79.7734 65C75.8401 69.5333 69.7734 71.8667 61.5734 72C57.5734 72 53.9401 71.6667 50.6734 71C47.4734 70.3333 44.6734 69.0333 42.2734 67.1C39.8734 65.1667 38.6734 62.8333 38.6734 60.1C38.6734 57.3667 39.1734 54.6667 40.1734 52C41.1734 49.2667 42.2401 47.4667 43.3734 46.6ZM114.898 89.2C114.898 89.6667 112.032 89.9 106.298 89.9C100.632 89.9 97.7984 89.6667 97.7984 89.2V37.7H94.3984C92.7984 37.7 91.6984 36.2333 91.0984 33.3C90.8984 32.3667 90.7984 31.1667 90.7984 29.7C90.7984 28.2333 91.2651 26.5 92.1984 24.5C93.5318 21.5667 95.6651 20.1 98.5984 20.1C100.532 20.1 102.298 20.5667 103.898 21.5C105.565 22.3667 106.698 23.2 107.298 24C107.965 24.7333 108.298 25.1667 108.298 25.3C112.765 21.8333 117.598 20.1 122.798 20.1C127.998 20.1 132.465 22.1333 136.198 26.2C139.932 30.2 141.798 36.4333 141.798 44.9C141.798 53.3 139.932 59.8333 136.198 64.5C132.465 69.1 127.732 71.4 121.998 71.4C119.398 71.4 117.032 71.2667 114.898 71V89.2ZM118.998 37.6C117.865 37.6 116.765 37.9667 115.698 38.7V56.4C116.832 56.5333 117.732 56.6 118.398 56.6C119.132 56.6 119.698 56.6 120.098 56.6C122.832 56.3333 124.198 52.8333 124.198 46.1C124.198 40.4333 122.465 37.6 118.998 37.6ZM153.167 65.1C149.034 60.5 146.967 54.1333 146.967 46C146.967 37.8667 149.034 31.5 153.167 26.9C157.367 22.3 163.001 20 170.067 20C177.134 20 182.734 22.3 186.867 26.9C191.001 31.5 193.067 37.8667 193.067 46C193.067 54.1333 191.001 60.5 186.867 65.1C182.734 69.7 177.134 72 170.067 72C163.001 72 157.367 69.7 153.167 65.1ZM170.067 36.7C166.334 36.7 164.467 39.7667 164.467 45.9C164.467 52.0333 166.334 55.1 170.067 55.1C173.867 55.1 175.767 52.0333 175.767 45.9C175.767 39.7667 173.867 36.7 170.067 36.7ZM223.137 70.4C223.137 71.2 220.337 71.6 214.737 71.6C208.07 71.3333 204.737 70.9 204.737 70.3V34.9H199.637C198.303 34.9 197.637 32.6 197.637 28C197.637 26.8 197.737 25.3333 197.937 23.6C198.203 21.8667 198.703 21 199.437 21H204.737V12.2C204.737 10.8667 207.537 10.2 213.137 10.2C218.803 10.2 221.637 10.7333 221.637 11.8V18.2L221.737 21H230.237C231.37 21 231.937 23.3333 231.937 28C231.937 32.6667 231.37 35 230.237 35H223.137V70.4ZM286.401 69.4C286.401 70.7333 283.101 71.4 276.501 71.4C269.901 71.4 266.601 70.7333 266.601 69.4V19.2H254.601C253.467 19.2 252.667 17.6667 252.201 14.6C252.001 13.1333 251.901 11.6333 251.901 10.1C251.901 8.56666 252.001 7.06666 252.201 5.6C252.667 2.53333 253.467 0.999995 254.601 0.999995H298.101C299.234 0.999995 300.034 2.53333 300.501 5.6C300.701 7.06666 300.801 8.56666 300.801 10.1C300.801 11.6333 300.701 13.1333 300.501 14.6C300.034 17.6667 299.234 19.2 298.101 19.2H286.401V69.4ZM322.696 70.3C322.696 70.9 319.896 71.2 314.296 71.2C308.763 71.2 305.996 70.7333 305.996 69.8V1.3C305.996 0.833329 307.029 0.499996 309.096 0.299998C311.163 0.0999969 312.896 -3.8147e-06 314.296 -3.8147e-06C319.896 -3.8147e-06 322.696 0.599996 322.696 1.8V21.8C326.429 20.6667 329.263 20.1 331.196 20.1C336.263 20.1 340.263 21.4667 343.196 24.2C346.129 26.8667 347.596 31.8667 347.596 39.2V70.2C347.596 70.8 344.996 71.1 339.796 71.1C333.929 70.9 330.996 70.5667 330.996 70.1V40.7C330.996 37.4333 329.929 35.8 327.796 35.8C326.329 35.8 324.629 36.5 322.696 37.9V70.3ZM393.894 68.3C389.694 70.7667 384.294 72 377.694 72C371.094 72 365.527 69.7667 360.994 65.3C356.46 60.7667 354.194 54.5333 354.194 46.6C354.194 38.6 356.36 32.1667 360.694 27.3C365.094 22.4333 370.627 20 377.294 20C383.96 20 389.094 21.7 392.694 25.1C396.36 28.5 398.194 32.6333 398.194 37.5C398.194 48.3 391.994 53.7 379.594 53.7H372.694C372.694 55.7 373.227 57.1 374.294 57.9C375.427 58.6333 377.06 59 379.194 59C383.86 59 388.294 57.9333 392.494 55.8C392.56 55.7333 392.86 56.2 393.394 57.2C394.994 60.0667 395.794 62.5 395.794 64.5C395.794 66.4333 395.16 67.7 393.894 68.3ZM381.394 39.4C381.394 36.6 380.027 35.2 377.294 35.2C376.027 35.2 374.927 35.6 373.994 36.4C373.127 37.1333 372.694 38.2333 372.694 39.7V42.8H378.094C380.294 42.8 381.394 41.6667 381.394 39.4ZM0.783203 180.4V120.4C0.783203 118.733 1.1832 117.433 1.9832 116.5C2.84987 115.5 3.94987 115 5.2832 115H21.9832C32.5832 115 40.6165 117.667 46.0832 123C51.6165 128.333 54.3832 136.733 54.3832 148.2C54.3832 172.733 43.9165 185 22.9832 185H5.8832C2.4832 185 0.783203 183.467 0.783203 180.4ZM19.9832 134V163.9C19.9832 165.3 20.0832 166.2 20.2832 166.6C20.4832 166.933 21.0832 167.1 22.0832 167.1C25.7499 167.1 28.5165 165.733 30.3832 163C32.3165 160.267 33.2832 155.733 33.2832 149.4C33.2832 143 32.2832 138.833 30.2832 136.9C28.3499 134.967 25.2499 134 20.9832 134H19.9832ZM80.2043 184.4C80.2043 184.933 77.1376 185.2 71.0043 185.2C64.9376 185.2 61.9043 184.967 61.9043 184.5V135.4C61.9043 134.933 64.9376 134.7 71.0043 134.7C77.1376 134.7 80.2043 134.9 80.2043 135.3V184.4ZM80.2043 129.4C80.2043 129.867 77.1376 130.1 71.0043 130.1C64.9376 130.1 61.9043 129.9 61.9043 129.5V115.1C61.9043 114.433 64.9376 114.1 71.0043 114.1C77.1376 114.1 80.2043 114.3 80.2043 114.7V129.4ZM93.148 148.3H88.248C87.248 148.3 86.748 146.1 86.748 141.7C86.748 137.233 87.248 135 88.248 135H93.148V132.8C93.148 125.733 94.6147 120.867 97.548 118.2C100.548 115.467 104.715 114.1 110.048 114.1C115.381 114.1 120.081 115.067 124.148 117C124.681 117.2 124.948 117.933 124.948 119.2C124.948 120.4 124.381 122.367 123.248 125.1C122.115 127.833 121.148 129.4 120.348 129.8C118.081 128.4 115.748 127.7 113.348 127.7C110.748 127.7 109.448 129.433 109.448 132.9V135H117.748C118.948 135 119.548 137.133 119.548 141.4C119.548 146.067 118.781 148.4 117.248 148.4H110.848V183.8C110.848 184.6 107.881 185 101.948 185C96.0814 185 93.148 184.6 93.148 183.8V148.3ZM130.648 148.3H125.748C124.748 148.3 124.248 146.1 124.248 141.7C124.248 137.233 124.748 135 125.748 135H130.648V132.8C130.648 125.733 132.115 120.867 135.048 118.2C138.048 115.467 142.215 114.1 147.548 114.1C152.881 114.1 157.581 115.067 161.648 117C162.181 117.2 162.448 117.933 162.448 119.2C162.448 120.4 161.881 122.367 160.748 125.1C159.615 127.833 158.648 129.4 157.848 129.8C155.581 128.4 153.248 127.7 150.848 127.7C148.248 127.7 146.948 129.433 146.948 132.9V135H155.248C156.448 135 157.048 137.133 157.048 141.4C157.048 146.067 156.281 148.4 154.748 148.4H148.348V183.8C148.348 184.6 145.381 185 139.448 185C133.581 185 130.648 184.6 130.648 183.8V148.3ZM199.509 182.3C195.309 184.767 189.909 186 183.309 186C176.709 186 171.142 183.767 166.609 179.3C162.076 174.767 159.809 168.533 159.809 160.6C159.809 152.6 161.976 146.167 166.309 141.3C170.709 136.433 176.242 134 182.909 134C189.576 134 194.709 135.7 198.309 139.1C201.976 142.5 203.809 146.633 203.809 151.5C203.809 162.3 197.609 167.7 185.209 167.7H178.309C178.309 169.7 178.842 171.1 179.909 171.9C181.042 172.633 182.676 173 184.809 173C189.476 173 193.909 171.933 198.109 169.8C198.176 169.733 198.476 170.2 199.009 171.2C200.609 174.067 201.409 176.5 201.409 178.5C201.409 180.433 200.776 181.7 199.509 182.3ZM187.009 153.4C187.009 150.6 185.642 149.2 182.909 149.2C181.642 149.2 180.542 149.6 179.609 150.4C178.742 151.133 178.309 152.233 178.309 153.7V156.8H183.709C185.909 156.8 187.009 155.667 187.009 153.4ZM232.242 184.9C232.242 185.367 229.208 185.6 223.142 185.6C217.075 185.467 214.042 185.2 214.042 184.8V151.6H211.342C210.275 151.6 209.408 150.967 208.742 149.7C208.142 148.367 207.842 146.733 207.842 144.8C207.842 137.6 209.975 134 214.242 134C217.242 134 219.742 134.933 221.742 136.8C223.742 138.6 224.742 140.667 224.742 143C226.142 140.267 228.008 138.1 230.342 136.5C232.742 134.833 235.175 134 237.642 134C241.508 134 243.842 135 244.642 137C244.842 137.533 244.942 138.333 244.942 139.4C244.942 140.4 244.608 142.233 243.942 144.9C243.342 147.567 242.708 149.5 242.042 150.7C241.375 151.9 240.975 152.5 240.842 152.5C240.708 152.5 240.075 152.267 238.942 151.8C237.875 151.267 236.908 151 236.042 151C233.508 151 232.242 153 232.242 157V184.9ZM287.79 182.3C283.59 184.767 278.19 186 271.59 186C264.99 186 259.424 183.767 254.89 179.3C250.357 174.767 248.09 168.533 248.09 160.6C248.09 152.6 250.257 146.167 254.59 141.3C258.99 136.433 264.524 134 271.19 134C277.857 134 282.99 135.7 286.59 139.1C290.257 142.5 292.09 146.633 292.09 151.5C292.09 162.3 285.89 167.7 273.49 167.7H266.59C266.59 169.7 267.124 171.1 268.19 171.9C269.324 172.633 270.957 173 273.09 173C277.757 173 282.19 171.933 286.39 169.8C286.457 169.733 286.757 170.2 287.29 171.2C288.89 174.067 289.69 176.5 289.69 178.5C289.69 180.433 289.057 181.7 287.79 182.3ZM275.29 153.4C275.29 150.6 273.924 149.2 271.19 149.2C269.924 149.2 268.824 149.6 267.89 150.4C267.024 151.133 266.59 152.233 266.59 153.7V156.8H271.99C274.19 156.8 275.29 155.667 275.29 153.4ZM319.523 184.4C319.523 184.867 317.123 185.1 312.323 185.1C305.656 184.9 302.323 184.533 302.323 184V151.6H299.723C297.99 151.6 296.856 150.133 296.323 147.2C296.19 146.333 296.123 145.467 296.123 144.6C296.123 142.533 296.523 140.467 297.323 138.4C298.523 135.467 300.39 134 302.923 134C305.456 134 307.723 134.6 309.723 135.8C311.723 137 313.056 138.2 313.723 139.4C317.923 135.8 322.923 134 328.723 134C334.523 134 338.723 135.567 341.323 138.7C343.923 141.833 345.223 146.967 345.223 154.1V184.1C345.223 184.9 342.356 185.3 336.623 185.3C330.956 185.3 328.123 184.9 328.123 184.1V155.2C328.123 151.867 326.956 150.2 324.623 150.2C323.956 150.2 323.023 150.5 321.823 151.1C320.623 151.633 319.856 152.033 319.523 152.3V184.4ZM370.101 160.2C370.101 166.733 372.568 170 377.501 170C380.701 170 383.368 169.367 385.501 168.1C386.501 168.1 387.301 169.833 387.901 173.3C388.568 176.7 388.901 179.033 388.901 180.3C388.901 181.5 388.735 182.3 388.401 182.7C384.868 184.9 380.035 186 373.901 186C367.768 186 362.535 183.733 358.201 179.2C353.935 174.6 351.801 168.367 351.801 160.5C351.801 152.567 353.901 146.167 358.101 141.3C362.368 136.433 368.001 134 375.001 134C382.068 134 386.968 135.7 389.701 139.1C390.301 139.833 390.601 140.933 390.601 142.4C390.601 143.8 390.335 145.533 389.801 147.6C388.601 151.867 387.035 154.333 385.101 155C384.835 155.067 384.435 155.1 383.901 155.1C383.435 155.1 382.835 154.7 382.101 153.9C379.501 151.3 377.401 150 375.801 150C374.268 150 372.935 150.8 371.801 152.4C370.668 154 370.101 156.6 370.101 160.2ZM433.884 182.3C429.684 184.767 424.284 186 417.684 186C411.084 186 405.517 183.767 400.984 179.3C396.451 174.767 394.184 168.533 394.184 160.6C394.184 152.6 396.351 146.167 400.684 141.3C405.084 136.433 410.617 134 417.284 134C423.951 134 429.084 135.7 432.684 139.1C436.351 142.5 438.184 146.633 438.184 151.5C438.184 162.3 431.984 167.7 419.584 167.7H412.684C412.684 169.7 413.217 171.1 414.284 171.9C415.417 172.633 417.051 173 419.184 173C423.851 173 428.284 171.933 432.484 169.8C432.551 169.733 432.851 170.2 433.384 171.2C434.984 174.067 435.784 176.5 435.784 178.5C435.784 180.433 435.151 181.7 433.884 182.3ZM421.384 153.4C421.384 150.6 420.017 149.2 417.284 149.2C416.017 149.2 414.917 149.6 413.984 150.4C413.117 151.133 412.684 152.233 412.684 153.7V156.8H418.084C420.284 156.8 421.384 155.667 421.384 153.4Z" fill="black"/>
</svg>
