<svg width="537" height="610" viewBox="0 0 537 610" fill="none" xmlns="http://www.w3.org/2000/svg">
<path d="M242.57 71.5L229.57 3C226.237 3 215.47 5.2 199.07 14C178.57 25 169.57 63 184.07 83.5C209.27 117.1 220.904 166.5 223.57 187H179.57C152.57 187 103.571 205 102.071 238C100.871 264.4 115.237 281 122.571 286C131.904 290 157.071 297.1 183.071 293.5L236.57 270C244.17 273.6 266.737 293.5 277.07 303L259.07 313C265.07 316.6 283.237 333.833 291.57 342L267.07 355.5C275.87 360.3 291.07 380.167 297.57 389.5L248.07 413C254.904 416 274.37 421.8 297.57 421C320.77 420.2 361.57 378.667 379.07 358H424.57C446.97 302 433.904 240.333 424.57 216.5C415.404 216.667 393.47 216.9 379.07 216.5C361.07 216 353.07 198 329.57 165.5C310.77 139.5 263.737 92 242.57 71.5Z" fill="#FDDBB6"/>
<path d="M259.07 313L277.07 303C266.737 293.5 244.17 273.6 236.57 270L183.071 293.5C157.071 297.1 131.904 290 122.571 286C96.5711 309.6 121.404 329.5 137.07 336.5H202.071L259.07 313Z" fill="#FDDBB6"/>
<path d="M267.07 355.5L291.57 342C283.237 333.833 265.07 316.6 259.07 313L202.071 336.5H137.07C136.27 372.1 162.07 379 175.07 378H214.07L267.07 355.5Z" fill="#FDDBB6"/>
<path d="M248.07 413L297.57 389.5C291.07 380.167 275.87 360.3 267.07 355.5L214.07 378H175.07C172.237 384.5 170.97 400.9 188.57 414.5C206.17 428.1 235.57 419.167 248.07 413Z" fill="#FDDBB6"/>
<path d="M248.07 413C254.904 416 274.37 421.8 297.57 421C320.77 420.2 361.57 378.667 379.07 358H424.57C446.97 302 433.904 240.333 424.57 216.5C415.404 216.667 393.47 216.9 379.07 216.5C361.07 216 353.07 198 329.57 165.5C310.77 139.5 263.737 92 242.57 71.5L229.57 3C226.237 3 215.47 5.2 199.07 14C178.57 25 169.57 63 184.07 83.5C209.27 117.1 220.904 166.5 223.57 187M248.07 413L297.57 389.5C291.07 380.167 275.87 360.3 267.07 355.5M248.07 413C235.57 419.167 206.17 428.1 188.57 414.5C170.97 400.9 172.237 384.5 175.07 378M267.07 355.5L291.57 342C283.237 333.833 265.07 316.6 259.07 313M267.07 355.5L214.07 378H175.07M259.07 313L277.07 303C266.737 293.5 244.17 273.6 236.57 270M259.07 313L202.071 336.5H137.07M236.57 270L255.07 260C248.57 249 227.97 227.6 197.57 230C167.17 232.4 156.57 238.333 155.07 241L146.07 233.5M236.57 270L183.071 293.5C157.071 297.1 131.904 290 122.571 286M175.07 378C162.07 379 136.27 372.1 137.07 336.5M137.07 336.5C121.404 329.5 96.5711 309.6 122.571 286M122.571 286C115.237 281 100.871 264.4 102.071 238C103.571 205 152.57 187 179.57 187M179.57 187C201.17 187 217.904 187 223.57 187M179.57 187H223.57" stroke="black" stroke-width="5"/>
<path d="M131.742 488.6C131.622 488.16 133.642 487.94 137.802 487.94C142.402 487.94 144.762 488.32 144.882 489.08L147.822 514.34L154.182 488.78C154.382 488.18 155.942 487.88 158.862 487.88C161.782 487.88 163.342 488.16 163.542 488.72L169.782 514.46L173.262 488.96C173.342 488.52 174.262 488.22 176.022 488.06C177.782 487.9 179.202 487.82 180.282 487.82C184.482 487.82 186.522 488.1 186.402 488.66L179.142 528.44C178.982 529.04 177.842 529.48 175.722 529.76C173.602 530.04 171.882 530.18 170.562 530.18C165.602 530.18 163.002 529.62 162.762 528.5L158.682 512L154.242 528.44C154.082 529.16 152.682 529.68 150.042 530C148.682 530.12 147.322 530.18 145.962 530.18L142.122 530C139.482 529.72 138.082 529.22 137.922 528.5L131.742 488.6ZM211.526 528.38C209.006 529.86 205.766 530.6 201.806 530.6C197.846 530.6 194.506 529.26 191.786 526.58C189.066 523.86 187.706 520.12 187.706 515.36C187.706 510.56 189.006 506.7 191.606 503.78C194.246 500.86 197.566 499.4 201.566 499.4C205.566 499.4 208.646 500.42 210.806 502.46C213.006 504.5 214.106 506.98 214.106 509.9C214.106 516.38 210.386 519.62 202.946 519.62H198.806C198.806 520.82 199.126 521.66 199.766 522.14C200.446 522.58 201.426 522.8 202.706 522.8C205.506 522.8 208.166 522.16 210.686 520.88C210.726 520.84 210.906 521.12 211.226 521.72C212.186 523.44 212.666 524.9 212.666 526.1C212.666 527.26 212.286 528.02 211.526 528.38ZM204.026 511.04C204.026 509.36 203.206 508.52 201.566 508.52C200.806 508.52 200.146 508.76 199.586 509.24C199.066 509.68 198.806 510.34 198.806 511.22V513.08H202.046C203.366 513.08 204.026 512.4 204.026 511.04ZM228.946 529.52C228.946 529.88 226.906 530.06 222.826 530.06C219.626 530.02 218.026 529.86 218.026 529.58V488.72C218.026 488.12 219.966 487.82 223.846 487.82C227.246 487.94 228.946 488.14 228.946 488.42V529.52ZM245.294 529.52C245.294 529.88 243.254 530.06 239.174 530.06C235.974 530.02 234.374 529.86 234.374 529.58V488.72C234.374 488.12 236.314 487.82 240.194 487.82C243.594 487.94 245.294 488.14 245.294 488.42V529.52ZM262.33 527.24V491.24C262.33 490.24 262.57 489.46 263.05 488.9C263.57 488.3 264.23 488 265.03 488H275.05C281.41 488 286.23 489.6 289.51 492.8C292.83 496 294.49 501.04 294.49 507.92C294.49 522.64 288.21 530 275.65 530H265.39C263.35 530 262.33 529.08 262.33 527.24ZM273.85 499.4V517.34C273.85 518.18 273.91 518.72 274.03 518.96C274.15 519.16 274.51 519.26 275.11 519.26C277.31 519.26 278.97 518.44 280.09 516.8C281.25 515.16 281.83 512.44 281.83 508.64C281.83 504.8 281.23 502.3 280.03 501.14C278.87 499.98 277.01 499.4 274.45 499.4H273.85ZM301.583 526.46C299.103 523.7 297.863 519.88 297.863 515C297.863 510.12 299.103 506.3 301.583 503.54C304.103 500.78 307.483 499.4 311.723 499.4C315.963 499.4 319.323 500.78 321.803 503.54C324.283 506.3 325.523 510.12 325.523 515C325.523 519.88 324.283 523.7 321.803 526.46C319.323 529.22 315.963 530.6 311.723 530.6C307.483 530.6 304.103 529.22 301.583 526.46ZM311.723 509.42C309.483 509.42 308.363 511.26 308.363 514.94C308.363 518.62 309.483 520.46 311.723 520.46C314.003 520.46 315.143 518.62 315.143 514.94C315.143 511.26 314.003 509.42 311.723 509.42ZM342.304 529.64C342.304 529.92 340.864 530.06 337.984 530.06C333.984 529.94 331.984 529.72 331.984 529.4V509.96H330.424C329.384 509.96 328.704 509.08 328.384 507.32C328.304 506.8 328.264 506.28 328.264 505.76C328.264 504.52 328.504 503.28 328.984 502.04C329.704 500.28 330.824 499.4 332.344 499.4C333.864 499.4 335.224 499.76 336.424 500.48C337.624 501.2 338.424 501.92 338.824 502.64C341.344 500.48 344.344 499.4 347.824 499.4C351.304 499.4 353.824 500.34 355.384 502.22C356.944 504.1 357.724 507.18 357.724 511.46V529.46C357.724 529.94 356.004 530.18 352.564 530.18C349.164 530.18 347.464 529.94 347.464 529.46V512.12C347.464 510.12 346.764 509.12 345.364 509.12C344.964 509.12 344.404 509.3 343.684 509.66C342.964 509.98 342.504 510.22 342.304 510.38V529.64ZM385.491 528.38C382.971 529.86 379.731 530.6 375.771 530.6C371.811 530.6 368.471 529.26 365.751 526.58C363.031 523.86 361.671 520.12 361.671 515.36C361.671 510.56 362.971 506.7 365.571 503.78C368.211 500.86 371.531 499.4 375.531 499.4C379.531 499.4 382.611 500.42 384.771 502.46C386.971 504.5 388.071 506.98 388.071 509.9C388.071 516.38 384.351 519.62 376.911 519.62H372.771C372.771 520.82 373.091 521.66 373.731 522.14C374.411 522.58 375.391 522.8 376.671 522.8C379.471 522.8 382.131 522.16 384.651 520.88C384.691 520.84 384.871 521.12 385.191 521.72C386.151 523.44 386.631 524.9 386.631 526.1C386.631 527.26 386.251 528.02 385.491 528.38ZM377.991 511.04C377.991 509.36 377.171 508.52 375.531 508.52C374.771 508.52 374.111 508.76 373.551 509.24C373.031 509.68 372.771 510.34 372.771 511.22V513.08H376.011C377.331 513.08 377.991 512.4 377.991 511.04ZM401.891 517.4C401.891 517.64 400.451 517.76 397.571 517.76C394.731 517.76 393.311 517.66 393.311 517.46L392.111 487.88C392.111 487.56 393.931 487.4 397.571 487.4C401.251 487.4 403.091 487.54 403.091 487.82L401.891 517.4ZM391.991 521C391.991 520.72 393.831 520.58 397.511 520.58C401.231 520.58 403.091 520.7 403.091 520.94V529.58C403.091 529.98 401.231 530.18 397.511 530.18C393.831 530.18 391.991 530.06 391.991 529.82V521Z" fill="black"/>
</svg>
